<?xml version="1.0" encoding="utf-8"?>
<!-- Generator: Adobe Illustrator 23.0.2, SVG Export Plug-In . SVG Version: 6.00 Build 0)  -->
<svg version="1.1" id="Layer_1" xmlns="http://www.w3.org/2000/svg" xmlns:xlink="http://www.w3.org/1999/xlink" x="0px" y="0px"
	 viewBox="0 0 1600 1200" style="enable-background:new 0 0 1600 1200;" xml:space="preserve">
<style type="text/css">
	.st0{fill:#492F24;}
	.st1{fill:#FFC425;}
</style>
<g>
	<g>
		<path class="st0" d="M458.69,744.31c0-25.07,8.49-37.12,35.34-37.12h51.37c24.38,0,31.1,11.37,31.1,24.66v8.49h-11.78v-4.52
			c0-16.85-10.41-17.67-22.74-17.67H495.4c-12.88,0-23.29,3.84-23.29,21.09v37.26c0,17.26,10.41,21.1,23.29,21.1h46.98
			c18.08,0,23.29-3.84,23.29-17.26v-6.16h12.6v6.71c0,17.94-5.75,27.67-33.56,27.67h-50.68c-26.85,0-35.34-12.05-35.34-37.12V744.31
			z"/>
		<path class="st0" d="M606.78,708.28h97.39v10.96H620.2v31.64h80.68v10.96H620.2v34.66h84.52v10.96h-97.94V708.28z"/>
		<path class="st0" d="M731.17,708.28h80.14c33.29,0,42.33,10.41,42.33,49.59c0,36.44-9.04,49.59-42.74,49.59h-79.72V708.28z
			 M840.2,753.08c0-28.63-8.9-33.83-25.34-33.83h-70.27v77.26h68.08c16.3,0,27.53-3.56,27.53-33.29V753.08z"/>
		<path class="st0" d="M931.99,708.28h16.71l58.9,99.17H992.4l-12.33-20.96h-79.45l-12.33,20.96h-15.21L931.99,708.28z
			 M940.35,719.24l-33.29,56.3h66.57L940.35,719.24z"/>
		<path class="st0" d="M1028.85,708.28h79.31c28.63,0,33.15,9.45,33.15,28.08v8.08c0,13.97-7.94,17.81-18.22,18.77v0.27
			c13.7,2.47,16.98,9.59,16.98,18.63v25.34h-12.6v-21.78c0-15.48-7.53-17.4-19.73-17.4h-65.48v39.18h-13.42V708.28z M1106.65,757.32
			c14.93,0,21.23-3.97,21.23-14.38v-9.04c0-11.09-4.79-14.66-24.52-14.66h-61.09v38.08H1106.65z"/>
	</g>
</g>
<g>
	<g>
		<path class="st1" d="M457.7,839.93c0-3.81,1.29-5.65,5.38-5.65h7.82c3.71,0,4.73,1.73,4.73,3.75v1.29h-1.79v-0.69
			c0-2.56-1.58-2.69-3.46-2.69h-7.09c-1.96,0-3.54,0.58-3.54,3.21v5.67c0,2.63,1.59,3.21,3.54,3.21h7.15c2.75,0,3.54-0.58,3.54-2.63
			v-0.94h1.92v1.02c0,2.73-0.88,4.21-5.11,4.21h-7.71c-4.09,0-5.38-1.83-5.38-5.65V839.93z"/>
		<path class="st1" d="M480.5,852.04c2.75,0,3.34-0.19,4.27-2.34h-0.44l-6.02-10.8h2.02l5.15,9.4l4.63-9.4h1.94l-6,11.95
			c-1.1,2.19-1.85,2.61-5.55,2.65V852.04z"/>
		<path class="st1" d="M494.86,834.45h1.79v5.88h0.04c0.37-1.1,1.36-1.59,3.4-1.59h2.73c4.31,0,5.63,1.21,5.63,4.61v1.88
			c0,3.67-2.27,4.48-5.53,4.48h-2.5c-1.88,0-3.34-0.56-3.86-1.86h-0.04v1.69h-1.67V834.45z M506.66,843.12
			c0-2.46-1.23-2.92-3.69-2.92h-2.42c-2.42,0-3.9,0.42-3.9,2.96v2.02c0,1.94,0.85,3.06,3.52,3.06h2.92c2.92,0,3.57-0.98,3.57-3.04
			V843.12z"/>
		<path class="st1" d="M511.91,843.03c0-3.86,2.67-4.3,5.21-4.3H520c3.21,0,5.52,0.81,5.52,4.61v1.19H513.7v0.67
			c0,2.42,1.17,3.04,4.3,3.04h2.46c2.25,0,3.17-0.29,3.27-1.92h1.79v0.21c0,2.44-2.02,3.17-5.36,3.17h-3.25c-2.33,0-5-0.44-5-4.36
			V843.03z M523.73,842.37c0-1.08-0.81-2.17-3.73-2.17h-2.63c-2.84,0-3.5,0.46-3.67,2.88h10.03V842.37z"/>
		<path class="st1" d="M529.52,838.91h1.67v1.54h0.04c0.67-1.38,2.02-1.71,3.25-1.71h1.69c3.36,0,4.46,1.08,4.46,3.69v1.27h-1.67
			v-0.46c0-2.63-0.54-3.04-3.73-3.04h-1.1c-1.9,0-2.82,1.21-2.82,2.59v6.75h-1.79V838.91z"/>
		<path class="st1" d="M543.4,845.87h1.67v0.52c0,1.31,0.69,1.85,2.52,1.85h3.84c2.69,0,3.54-0.1,3.54-1.69v-0.08
			c0-1.02-0.29-1.58-2.44-1.58H547c-2.52,0-3.46-0.81-3.46-2.84v-0.63c0-1.73,0.98-2.69,5.4-2.69h2.75c4.05,0,4.61,1.17,4.61,2.67
			v0.56h-1.67v-0.1c0-1.63-1.08-1.67-3.04-1.67h-3.13c-2.56,0-3.13,0.25-3.13,1.46v0.4c0,0.88,0.29,1.38,2.17,1.38h4.73
			c2.69,0,4.52,0.27,4.52,3.15v0.04c0,2.98-2.75,3.09-4.94,3.09h-3.29c-2.65,0-5.13,0-5.13-3.19V845.87z"/>
		<path class="st1" d="M560.3,843.03c0-3.86,2.67-4.3,5.21-4.3h2.88c3.21,0,5.53,0.81,5.53,4.61v1.19h-11.82v0.67
			c0,2.42,1.17,3.04,4.29,3.04h2.46c2.25,0,3.17-0.29,3.27-1.92h1.79v0.21c0,2.44-2.02,3.17-5.36,3.17h-3.25c-2.33,0-5-0.44-5-4.36
			V843.03z M572.12,842.37c0-1.08-0.81-2.17-3.73-2.17h-2.63c-2.84,0-3.5,0.46-3.67,2.88h10.03V842.37z"/>
		<path class="st1" d="M577.28,843.03c0-3.86,2.71-4.3,5.34-4.3h3c3.34,0,4.65,1.36,4.65,3.61v0.29h-1.67v-0.25
			c0-1.77-1.17-2.19-2.96-2.19h-3.29c-1.69,0-3.27,0.25-3.27,2.9v2.23c0,2.38,1.46,2.92,3.63,2.92h3.02c1.67,0,3.06-0.5,3.06-2.23
			v-0.35h1.67v0.31c0,2.69-1.33,3.73-4.67,3.73h-4.04c-1.61,0-4.46-0.44-4.46-4.3V843.03z"/>
		<path class="st1" d="M605.69,847.7h-0.04c-0.67,1.65-2.06,2-4.29,2h-2.69c-3.36,0-4.42-1.69-4.42-3.61v-7.19h1.79v6.76
			c0,1.56,0.44,2.58,3.92,2.58h0.46c4.19,0,5.15-0.79,5.15-3.29v-6.05h1.79v10.63h-1.67V847.7z"/>
		<path class="st1" d="M611.92,838.91h1.67v1.54h0.04c0.67-1.38,2.02-1.71,3.25-1.71h1.69c3.36,0,4.46,1.08,4.46,3.69v1.27h-1.67
			v-0.46c0-2.63-0.54-3.04-3.73-3.04h-1.11c-1.9,0-2.81,1.21-2.81,2.59v6.75h-1.79V838.91z"/>
		<path class="st1" d="M626.45,834.45h1.79v1.96h-1.79V834.45z M626.45,838.91h1.79v10.63h-1.79V838.91z"/>
		<path class="st1" d="M633.87,840.37h-2.33v-1.46h2.33v-2.52h1.79v2.52h7.11v1.46h-7.11v5.3c0,1.98,0.69,2.58,2.65,2.58h0.56
			c2.38,0,2.75-0.5,2.75-2.73v-0.79h1.46v1.17c0,2.13-0.21,3.81-4.09,3.81h-0.98c-3.36,0-4.15-1.63-4.15-3.36V840.37z"/>
		<path class="st1" d="M646.89,852.04c2.75,0,3.34-0.19,4.27-2.34h-0.44l-6.02-10.8h2.02l5.15,9.4l4.63-9.4h1.94l-6,11.95
			c-1.1,2.19-1.85,2.61-5.55,2.65V852.04z"/>
		<path class="st1" d="M672.65,834.45h14.82v1.67h-12.78v4.82h12.28v1.67h-12.28v5.27h12.86v1.67h-14.91V834.45z"/>
		<path class="st1" d="M704.5,849.54h-1.67v-1.69h-0.04c-0.52,1.29-1.98,1.86-3.86,1.86h-2.5c-3.25,0-5.52-0.81-5.52-4.48v-1.88
			c0-3.4,1.31-4.61,5.63-4.61h2.73c2.04,0,3.02,0.48,3.4,1.59h0.04v-5.88h1.79V849.54z M692.7,845.2c0,2.06,0.65,3.04,3.57,3.04
			h2.92c2.67,0,3.52-1.12,3.52-3.06v-2.02c0-2.54-1.48-2.96-3.9-2.96h-2.42c-2.46,0-3.69,0.46-3.69,2.92V845.2z"/>
		<path class="st1" d="M720.36,847.7h-0.04c-0.67,1.65-2.06,2-4.3,2h-2.69c-3.36,0-4.42-1.69-4.42-3.61v-7.19h1.79v6.76
			c0,1.56,0.44,2.58,3.92,2.58h0.46c4.19,0,5.15-0.79,5.15-3.29v-6.05h1.79v10.63h-1.67V847.7z"/>
		<path class="st1" d="M725.96,843.03c0-3.86,2.71-4.3,5.34-4.3h3c3.34,0,4.65,1.36,4.65,3.61v0.29h-1.67v-0.25
			c0-1.77-1.17-2.19-2.96-2.19h-3.29c-1.69,0-3.27,0.25-3.27,2.9v2.23c0,2.38,1.46,2.92,3.63,2.92h3.02c1.67,0,3.06-0.5,3.06-2.23
			v-0.35h1.67v0.31c0,2.69-1.33,3.73-4.67,3.73h-4.04c-1.61,0-4.46-0.44-4.46-4.3V843.03z"/>
		<path class="st1" d="M753.91,848.48h-0.04c-0.48,0.96-1.04,1.23-3.79,1.23h-4.3c-2.71,0-3.42-1.19-3.42-3.19v-0.71
			c0-2.42,1.71-2.71,4.84-2.71h2.88c2.33,0,3.17,0.25,3.79,1.27h0.04v-2c0-1.92-1.21-2.17-3.96-2.17h-2.63
			c-2.25,0-2.69,0.54-2.69,1.42v0.38h-1.79v-0.52c0-1.94,1.23-2.73,4.44-2.73h2.84c3.34,0,5.59,0.5,5.59,3.67v7.13h-1.79V848.48z
			 M753.91,846.2c0-1.46-1.29-1.65-4.04-1.65h-2.75c-2.32,0-2.96,0.33-2.96,1.67v0.33c0,1.19,0.42,1.69,2.88,1.69h2.38
			c3.25,0,4.5-0.23,4.5-1.56V846.2z"/>
		<path class="st1" d="M760.87,840.37h-2.33v-1.46h2.33v-2.52h1.79v2.52h7.11v1.46h-7.11v5.3c0,1.98,0.69,2.58,2.65,2.58h0.56
			c2.37,0,2.75-0.5,2.75-2.73v-0.79h1.46v1.17c0,2.13-0.21,3.81-4.09,3.81h-0.98c-3.36,0-4.15-1.63-4.15-3.36V840.37z"/>
		<path class="st1" d="M773.56,834.45h1.79v1.96h-1.79V834.45z M773.56,838.91h1.79v10.63h-1.79V838.91z"/>
		<path class="st1" d="M779.67,843.06c0-3.5,2.48-4.32,5.88-4.32h2.56c3.4,0,5.88,0.81,5.88,4.32v2.33c0,3.5-2.48,4.31-5.88,4.31
			h-2.56c-3.4,0-5.88-0.81-5.88-4.31V843.06z M792.2,843.16c0-2.48-1.46-2.96-3.54-2.96H785c-2.08,0-3.54,0.48-3.54,2.96v2.13
			c0,2.48,1.46,2.96,3.54,2.96h3.65c2.09,0,3.54-0.48,3.54-2.96V843.16z"/>
		<path class="st1" d="M798.05,838.91h1.67v1.83h0.04c0.67-1.65,2.06-2,4.3-2h2.69c3.36,0,4.42,1.69,4.42,3.61v7.19h-1.79v-6.75
			c0-1.56-0.44-2.59-3.92-2.59h-0.46c-4.19,0-5.15,0.79-5.15,3.29v6.05h-1.79V838.91z"/>
		<path class="st1" d="M834.25,834.45h2.54l8.96,15.09h-2.31l-1.88-3.19h-12.09l-1.88,3.19h-2.31L834.25,834.45z M835.52,836.11
			l-5.07,8.57h10.13L835.52,836.11z"/>
		<path class="st1" d="M848.79,838.91h1.67v1.83h0.04c0.67-1.65,2.06-2,4.29-2h2.69c3.36,0,4.42,1.69,4.42,3.61v7.19h-1.79v-6.75
			c0-1.56-0.44-2.59-3.92-2.59h-0.46c-4.19,0-5.15,0.79-5.15,3.29v6.05h-1.79V838.91z"/>
		<path class="st1" d="M879.44,849.54h-1.67v-1.69h-0.04c-0.52,1.29-1.98,1.86-3.86,1.86h-2.5c-3.25,0-5.53-0.81-5.53-4.48v-1.88
			c0-3.4,1.31-4.61,5.63-4.61h2.73c2.04,0,3.02,0.48,3.4,1.59h0.04v-5.88h1.79V849.54z M867.64,845.2c0,2.06,0.65,3.04,3.57,3.04
			h2.92c2.67,0,3.52-1.12,3.52-3.06v-2.02c0-2.54-1.48-2.96-3.9-2.96h-2.42c-2.46,0-3.69,0.46-3.69,2.92V845.2z"/>
		<path class="st1" d="M895.13,834.45h12.07c4.36,0,5.04,1.44,5.04,4.27v1.23c0,2.13-1.21,2.71-2.77,2.86v0.04
			c2.08,0.38,2.58,1.46,2.58,2.84v3.86h-1.92v-3.31c0-2.36-1.15-2.65-3-2.65h-9.97v5.96h-2.04V834.45z M906.97,841.91
			c2.27,0,3.23-0.6,3.23-2.19v-1.38c0-1.69-0.73-2.23-3.73-2.23h-9.3v5.79H906.97z"/>
		<path class="st1" d="M916.07,843.03c0-3.86,2.67-4.3,5.21-4.3h2.88c3.21,0,5.53,0.81,5.53,4.61v1.19h-11.82v0.67
			c0,2.42,1.17,3.04,4.3,3.04h2.46c2.25,0,3.17-0.29,3.27-1.92h1.79v0.21c0,2.44-2.02,3.17-5.36,3.17h-3.25c-2.33,0-5-0.44-5-4.36
			V843.03z M927.89,842.37c0-1.08-0.81-2.17-3.73-2.17h-2.63c-2.83,0-3.5,0.46-3.67,2.88h10.03V842.37z"/>
		<path class="st1" d="M933.14,845.87h1.67v0.52c0,1.31,0.69,1.85,2.52,1.85h3.84c2.69,0,3.54-0.1,3.54-1.69v-0.08
			c0-1.02-0.29-1.58-2.44-1.58h-5.53c-2.52,0-3.46-0.81-3.46-2.84v-0.63c0-1.73,0.98-2.69,5.4-2.69h2.75c4.05,0,4.61,1.17,4.61,2.67
			v0.56h-1.67v-0.1c0-1.63-1.08-1.67-3.04-1.67h-3.13c-2.56,0-3.13,0.25-3.13,1.46v0.4c0,0.88,0.29,1.38,2.17,1.38h4.73
			c2.69,0,4.52,0.27,4.52,3.15v0.04c0,2.98-2.75,3.09-4.94,3.09h-3.29c-2.65,0-5.13,0-5.13-3.19V845.87z"/>
		<path class="st1" d="M950.04,843.03c0-3.86,2.67-4.3,5.21-4.3h2.88c3.21,0,5.53,0.81,5.53,4.61v1.19h-11.82v0.67
			c0,2.42,1.17,3.04,4.3,3.04h2.46c2.25,0,3.17-0.29,3.27-1.92h1.79v0.21c0,2.44-2.02,3.17-5.36,3.17h-3.25c-2.33,0-5-0.44-5-4.36
			V843.03z M961.86,842.37c0-1.08-0.81-2.17-3.73-2.17h-2.63c-2.84,0-3.5,0.46-3.67,2.88h10.03V842.37z"/>
		<path class="st1" d="M978.49,848.48h-0.04c-0.48,0.96-1.04,1.23-3.79,1.23h-4.3c-2.71,0-3.42-1.19-3.42-3.19v-0.71
			c0-2.42,1.71-2.71,4.84-2.71h2.88c2.34,0,3.17,0.25,3.79,1.27h0.04v-2c0-1.92-1.21-2.17-3.96-2.17h-2.63
			c-2.25,0-2.69,0.54-2.69,1.42v0.38h-1.79v-0.52c0-1.94,1.23-2.73,4.44-2.73h2.84c3.34,0,5.59,0.5,5.59,3.67v7.13h-1.79V848.48z
			 M978.49,846.2c0-1.46-1.29-1.65-4.04-1.65h-2.75c-2.32,0-2.96,0.33-2.96,1.67v0.33c0,1.19,0.42,1.69,2.88,1.69h2.38
			c3.25,0,4.5-0.23,4.5-1.56V846.2z"/>
		<path class="st1" d="M984.64,838.91h1.67v1.54h0.04c0.67-1.38,2.02-1.71,3.25-1.71h1.69c3.36,0,4.46,1.08,4.46,3.69v1.27h-1.67
			v-0.46c0-2.63-0.54-3.04-3.73-3.04h-1.1c-1.9,0-2.81,1.21-2.81,2.59v6.75h-1.79V838.91z"/>
		<path class="st1" d="M998.43,843.03c0-3.86,2.71-4.3,5.34-4.3h3c3.34,0,4.65,1.36,4.65,3.61v0.29h-1.67v-0.25
			c0-1.77-1.17-2.19-2.96-2.19h-3.29c-1.69,0-3.27,0.25-3.27,2.9v2.23c0,2.38,1.46,2.92,3.63,2.92h3.02c1.67,0,3.06-0.5,3.06-2.23
			v-0.35h1.67v0.31c0,2.69-1.33,3.73-4.67,3.73h-4.05c-1.6,0-4.46-0.44-4.46-4.3V843.03z"/>
		<path class="st1" d="M1015.4,834.45h1.79v6.29h0.04c0.67-1.65,2.07-2,4.3-2h2.56c3.36,0,4.42,1.69,4.42,3.61v7.19h-1.79v-6.75
			c0-1.56-0.44-2.59-3.92-2.59h-0.46c-4.19,0-5.15,0.79-5.15,3.29v6.05h-1.79V834.45z"/>
		<path class="st1" d="M1043.93,839.93c0-3.81,1.29-5.65,5.38-5.65h7.82c3.71,0,4.73,1.73,4.73,3.75v1.29h-1.79v-0.69
			c0-2.56-1.59-2.69-3.46-2.69h-7.09c-1.96,0-3.54,0.58-3.54,3.21v5.67c0,2.63,1.58,3.21,3.54,3.21h7.15c2.75,0,3.55-0.58,3.55-2.63
			v-0.94h1.92v1.02c0,2.73-0.88,4.21-5.11,4.21h-7.71c-4.09,0-5.38-1.83-5.38-5.65V839.93z"/>
		<path class="st1" d="M1065.67,843.03c0-3.86,2.67-4.3,5.21-4.3h2.88c3.21,0,5.53,0.81,5.53,4.61v1.19h-11.82v0.67
			c0,2.42,1.17,3.04,4.29,3.04h2.46c2.25,0,3.17-0.29,3.27-1.92h1.79v0.21c0,2.44-2.02,3.17-5.36,3.17h-3.25c-2.33,0-5-0.44-5-4.36
			V843.03z M1077.49,842.37c0-1.08-0.81-2.17-3.73-2.17h-2.63c-2.84,0-3.5,0.46-3.67,2.88h10.03V842.37z"/>
		<path class="st1" d="M1083.13,838.91h1.67v1.83h0.04c0.67-1.65,2.06-2,4.3-2h2.69c3.36,0,4.42,1.69,4.42,3.61v7.19h-1.79v-6.75
			c0-1.56-0.44-2.59-3.92-2.59h-0.46c-4.19,0-5.15,0.79-5.15,3.29v6.05h-1.79V838.91z"/>
		<path class="st1" d="M1101.62,840.37h-2.33v-1.46h2.33v-2.52h1.79v2.52h7.11v1.46h-7.11v5.3c0,1.98,0.69,2.58,2.65,2.58h0.56
			c2.38,0,2.75-0.5,2.75-2.73v-0.79h1.46v1.17c0,2.13-0.21,3.81-4.09,3.81h-0.98c-3.36,0-4.15-1.63-4.15-3.36V840.37z"/>
		<path class="st1" d="M1113.58,843.03c0-3.86,2.67-4.3,5.21-4.3h2.88c3.21,0,5.53,0.81,5.53,4.61v1.19h-11.82v0.67
			c0,2.42,1.17,3.04,4.3,3.04h2.46c2.25,0,3.17-0.29,3.27-1.92h1.79v0.21c0,2.44-2.02,3.17-5.36,3.17h-3.25c-2.33,0-5-0.44-5-4.36
			V843.03z M1125.4,842.37c0-1.08-0.81-2.17-3.73-2.17h-2.63c-2.83,0-3.5,0.46-3.67,2.88h10.03V842.37z"/>
		<path class="st1" d="M1131.19,838.91h1.67v1.54h0.04c0.67-1.38,2.02-1.71,3.25-1.71h1.69c3.36,0,4.46,1.08,4.46,3.69v1.27h-1.67
			v-0.46c0-2.63-0.54-3.04-3.73-3.04h-1.1c-1.9,0-2.81,1.21-2.81,2.59v6.75h-1.79V838.91z"/>
	</g>
</g>
<g>
	<g>
		<path class="st0" d="M626.49,429.9l-6.37,79.48c0.64-0.29,1.38-0.47,2.21-0.51l6.2-77.38l55.66-18.66
			c-0.14-0.75-0.15-1.52-0.03-2.27L626.49,429.9z"/>
		<path class="st0" d="M993.44,384.24l-0.32-0.01c-9.51-0.3-23.62-0.87-30.68-1.43c-0.02,0.74-0.16,1.46-0.41,2.15
			c2.76,0.23,6.96,0.47,13.36,0.76c7.79,0.36,15.66,0.62,17.34,0.67l53.32,37.78l-35.01,61.54l-57.86,29.11l-58.37-38.43
			l-39.6,60.48l-48.43-33.94l-0.31-0.22l-75.32,4.82l10.39,16.32l-73.85,32l-41.42-36.32c-0.58,0.47-1.29,0.83-2.11,1.03
			l43.13,37.82l77.43-33.55l-9.78-15.38l70.91-4.54l49.95,35l39.64-60.54l57.08,37.58l0.52,0.34l59.27-29.81l0.29-0.15l35.82-62.95
			l0.48-0.85L993.44,384.24z"/>
	</g>
</g>
<g>
	<g>
		<path class="st0" d="M745.43,461.75l-13,44.95l-104.28-76.88l-1.28,1.74l106.78,78.72l13.72-47.45
			C746.61,462.6,745.97,462.22,745.43,461.75z"/>
		<path class="st0" d="M817.48,433.91l-54.03-29.74l-1.18-0.65l-13.81,47.75c0.25-0.03,0.51-0.05,0.78-0.05
			c0.51,0,0.99,0.06,1.43,0.16l12.92-44.66l53.14,29.25C816.87,435.24,817.11,434.54,817.48,433.91z"/>
		<path class="st0" d="M953.48,387.64l-58.71,88.81l-67.09-36.93c-0.26,0.68-0.63,1.31-1.12,1.85l68.91,37.93l60.07-90.86
			C954.75,388.31,954.06,388.02,953.48,387.64z"/>
	</g>
</g>
<g>
	<g>
		<polygon class="st0" points="925.91,426.68 992.51,384.4 993.66,386.22 933.52,424.41 1047.45,422.77 1047.49,424.93 		"/>
	</g>
</g>
<g>
	<g>
		<path class="st0" d="M763.37,403.41l-138.25,107.8c0.48,0.55,0.85,1.2,1.09,1.89L762.5,406.83l42.66,97.41l1.98-0.87
			L763.37,403.41z"/>
	</g>
</g>
<g>
	<g>
		
			<rect x="846.5" y="358.31" transform="matrix(0.9961 -0.0878 0.0878 0.9961 -36.121 76.1825)" class="st0" width="2.16" height="180.42"/>
	</g>
</g>
<g>
	<g>
		
			<rect x="845.81" y="437.63" transform="matrix(0.9519 -0.3065 0.3065 0.9519 -91.6941 293.5773)" class="st0" width="85.97" height="2.16"/>
	</g>
</g>
<g>
	<g>
		<path class="st0" d="M687.61,417.15l-21.19,139.8l2.14,0.32l21.18-139.73C688.95,417.53,688.24,417.39,687.61,417.15z"/>
		<path class="st0" d="M745.01,453.01l-49.59-40.07c-0.15,0.75-0.43,1.47-0.83,2.1l49.31,39.85
			C744.15,454.2,744.52,453.56,745.01,453.01z"/>
		<path class="st0" d="M819.25,442.28l-13.75,59.6l-51.34-41.48c-0.36,0.63-0.83,1.18-1.42,1.63l54.09,43.71l14.47-62.71
			C820.51,442.9,819.83,442.64,819.25,442.28z"/>
		<path class="st0" d="M897.05,480.27l118.34,7.56L840.3,357.79l-1.33-0.98l-17.18,74.45c0.19-0.02,0.38-0.03,0.58-0.03
			c0.58,0,1.11,0.08,1.6,0.2l16.37-70.92l167.9,124.7l-111.05-7.09L897.05,480.27z"/>
	</g>
</g>
<polygon class="st0" points="736.42,513.8 780.58,538.38 786.35,584.85 800.75,608.62 790.31,654.72 742.05,662.64 776.26,660.12 
	715.03,689.3 760.77,673.45 757.89,687.14 768.34,672.37 789.59,662.28 795.71,689.3 800.75,661.2 823.44,661.56 847.58,683.53 
	836.77,665.16 845.05,668.77 836.77,659.4 894.04,660.84 827.03,649.32 815.88,621.22 836.92,525.36 814.83,509.89 806.16,593.85 
	799.67,588.81 788.51,504.94 766.49,505.27 776.26,526.5 733.04,508.49 "/>
<circle class="st0" cx="681.25" cy="470.34" r="13.3"/>
<circle class="st0" cx="761.93" cy="405.54" r="13.3"/>
<circle class="st0" cx="849.45" cy="452.9" r="13.3"/>
<circle class="st0" cx="930.04" cy="424.52" r="13.3"/>
<circle class="st0" cx="1010.72" cy="486.11" r="13.3"/>
<circle class="st0" cx="990.55" cy="385.98" r="13.3"/>
<circle class="st0" cx="1046.05" cy="423.13" r="13.3"/>
<circle class="st0" cx="953.48" cy="516.91" r="13.3"/>
<circle class="st0" cx="896.22" cy="478.92" r="13.3"/>
<circle class="st0" cx="840.91" cy="364.8" r="13.3"/>
<circle class="st0" cx="854.21" cy="537" r="13.3"/>
<circle class="st0" cx="804.54" cy="500.99" r="13.3"/>
<circle class="st0" cx="723.86" cy="436.43" r="13.3"/>
<circle class="st0" cx="626.87" cy="432.14" r="13.3"/>
<circle class="st0" cx="669.73" cy="555.85" r="13.3"/>
<circle class="st0" cx="735.33" cy="508.31" r="13.3"/>
<g>
	<g>
		<path class="st1" d="M689.6,419.57c-4.61,0-8.35-3.75-8.35-8.35s3.75-8.35,8.35-8.35c4.61,0,8.35,3.75,8.35,8.35
			S694.21,419.57,689.6,419.57z M689.6,408.27c-1.63,0-2.95,1.32-2.95,2.95c0,1.63,1.32,2.95,2.95,2.95c1.63,0,2.95-1.32,2.95-2.95
			C692.55,409.59,691.23,408.27,689.6,408.27z"/>
	</g>
</g>
<g>
	<g>
		<path class="st1" d="M621.79,522.64c-4.61,0-8.35-3.75-8.35-8.35c0-4.61,3.75-8.35,8.35-8.35c4.61,0,8.35,3.75,8.35,8.35
			C630.14,518.89,626.39,522.64,621.79,522.64z M621.79,511.33c-1.63,0-2.95,1.32-2.95,2.95s1.32,2.95,2.95,2.95
			c1.63,0,2.95-1.32,2.95-2.95S623.41,511.33,621.79,511.33z"/>
	</g>
</g>
<g>
	<g>
		<path class="st1" d="M748.63,465.39c-4.61,0-8.35-3.75-8.35-8.35s3.75-8.35,8.35-8.35c4.61,0,8.35,3.75,8.35,8.35
			S753.24,465.39,748.63,465.39z M748.63,454.09c-1.63,0-2.95,1.32-2.95,2.95c0,1.63,1.32,2.95,2.95,2.95s2.95-1.32,2.95-2.95
			C751.58,455.41,750.26,454.09,748.63,454.09z"/>
	</g>
</g>
<g>
	<g>
		<path class="st1" d="M821.65,445.21c-4.61,0-8.35-3.75-8.35-8.35s3.75-8.35,8.35-8.35c4.61,0,8.35,3.75,8.35,8.35
			S826.26,445.21,821.65,445.21z M821.65,433.91c-1.63,0-2.95,1.32-2.95,2.95c0,1.63,1.32,2.95,2.95,2.95s2.95-1.32,2.95-2.95
			C824.6,435.23,823.28,433.91,821.65,433.91z"/>
	</g>
</g>
<g>
	<g>
		<path class="st1" d="M957.11,391.67c-4.61,0-8.35-3.75-8.35-8.35s3.75-8.35,8.35-8.35c4.61,0,8.35,3.75,8.35,8.35
			S961.72,391.67,957.11,391.67z M957.11,380.37c-1.63,0-2.95,1.32-2.95,2.95c0,1.63,1.32,2.95,2.95,2.95
			c1.63,0,2.95-1.32,2.95-2.95C960.06,381.69,958.74,380.37,957.11,380.37z"/>
	</g>
</g>
<path class="st0" d="M787.41,253.44l-72.01,34.22c0.57,0.41,1.09,0.96,1.54,1.66L787.05,256l43.99,38.87
	c0.58-0.49,1.24-0.89,1.95-1.16L787.41,253.44z"/>
<path class="st0" d="M763.56,400.05l-64.64-47.95l10.74-54.03c-0.7-0.27-1.36-0.7-1.94-1.31l-11.19,56.26l67.77,50.28"/>
<path class="st0" d="M815.88,382.87l-53.3,14.86l24.1-141.56l-2.48-0.14l-24.68,144.95"/>
<path class="st0" d="M842,360l-126.18-66.81c-0.13,0.56-0.36,1.06-0.68,1.49l124.4,65.87"/>
<path class="st0" d="M829,300l-131.66,51.55l0.79,2.01l131.6-51.52C829.34,301.34,829.11,300.66,829,300z"/>
<path class="st0" d="M841.23,367.88l-3.74-66.02c-0.57,0.12-1.2,0.1-1.85-0.08l3.71,65.65"/>
<circle class="st0" cx="779.76" cy="321.08" r="13.3"/>
<circle class="st0" cx="785.66" cy="254.89" r="13.3"/>
<circle class="st0" cx="699.95" cy="353.86" r="13.3"/>
<g>
	<g>
		<path class="st1" d="M704.74,295.74c-2.3-3.99-0.93-9.11,3.06-11.41c3.99-2.3,9.11-0.93,11.41,3.06c2.3,3.99,0.93,9.11-3.06,11.41
			C712.16,301.09,707.04,299.72,704.74,295.74z M714.53,290.08c-0.81-1.41-2.62-1.89-4.03-1.08s-1.89,2.62-1.08,4.03
			s2.62,1.89,4.03,1.08C714.86,293.3,715.34,291.49,714.53,290.08z"/>
	</g>
</g>
<g>
	<g>
		<polygon class="st0" points="775.09,395.12 842.21,374.34 832.91,375.14 765.79,395.92 		"/>
	</g>
</g>
<g>
	<g>
		<path class="st1" d="M835.65,304.21c-4.61,0-8.35-3.75-8.35-8.35s3.75-8.35,8.35-8.35c4.61,0,8.35,3.75,8.35,8.35
			S840.26,304.21,835.65,304.21z M835.65,292.91c-1.63,0-2.95,1.32-2.95,2.95c0,1.63,1.32,2.95,2.95,2.95s2.95-1.32,2.95-2.95
			C838.6,294.23,837.28,292.91,835.65,292.91z"/>
	</g>
</g>
</svg>
